<svg xmlns="http://www.w3.org/2000/svg" viewBox="0 0 100 100" fill="none">
  <defs>
    <!-- Glow Filters -->
    <filter id="logo-glow" x="-20%" y="-20%" width="140%" height="140%">
      <feGaussianBlur stdDeviation="3" result="blur" />
      <feComposite in="SourceGraphic" in2="blur" operator="over" />
    </filter>
    
    <filter id="neon-glow" x="-30%" y="-30%" width="160%" height="160%">
      <feGaussianBlur stdDeviation="1.5" result="blur" />
      <feColorMatrix type="matrix" values="1 0 0 0 0  0 1 0 0 0  0 0 1 0 0  0 0 0 1.5 0" />
      <feMerge>
        <feMergeNode in="blur" />
        <feMergeNode in="SourceGraphic" />
      </feMerge>
    </filter>

    {/* Gradients */}
    <radialGradient id="coin-bg" cx="50%" cy="50%" r="50%">
      <stop offset="0%" stop-color="#1e2230" />
      <stop offset="60%" stop-color="#080a10" />
      <stop offset="100%" stop-color="#020305" />
    </radialGradient>

    <linearGradient id="orbit-grad" x1="0%" y1="0%" x2="100%" y2="100%">
      <stop offset="0%" stop-color="#6366f1" />
      <stop offset="50%" stop-color="#3b82f6" />
      <stop offset="100%" stop-color="#a855f7" />
    </linearGradient>

    <linearGradient id="neon-n-grad" x1="0%" y1="0%" x2="100%" y2="100%">
      <stop offset="0%" stop-color="#a855f7" />
      <stop offset="30%" stop-color="#6366f1" />
      <stop offset="70%" stop-color="#14b8a6" />
      <stop offset="100%" stop-color="#10b981" />
    </linearGradient>

    <linearGradient id="n-bezel-grad" x1="0%" y1="0%" x2="0%" y2="100%">
      <stop offset="0%" stop-color="#ffffff" stop-opacity="0.8" />
      <stop offset="50%" stop-color="#a855f7" stop-opacity="0.3" />
      <stop offset="100%" stop-color="#000000" stop-opacity="0.8" />
    </linearGradient>

    <linearGradient id="coin-edge" x1="0%" y1="0%" x2="100%" y2="100%">
      <stop offset="0%" stop-color="#475569" />
      <stop offset="50%" stop-color="#1e293b" />
      <stop offset="100%" stop-color="#0f172a" />
    </linearGradient>
  </defs>

  <!-- 1. Base Coin Circle -->
  <circle cx="50" cy="50" r="47" fill="url(#coin-bg)" stroke="url(#coin-edge)" stroke-width="2.5" />
  
  <!-- 2. Concentric inner texture ring -->
  <circle cx="50" cy="50" r="41" stroke="#161b26" stroke-width="0.8" stroke-dasharray="3 2" opacity="0.6" />
  <circle cx="50" cy="50" r="43" stroke="#0c0f17" stroke-width="1" />

  <!-- 4. Nucleus Orbit Lines -->
  <g stroke="url(#orbit-grad)" stroke-width="1.2" fill="none" opacity="0.85" filter="url(#logo-glow)">
    <ellipse cx="50" cy="50" rx="40" ry="16" transform="rotate(-30 50 50)" />
    <ellipse cx="50" cy="50" rx="40" ry="16" transform="rotate(30 50 50)" />
    <ellipse cx="50" cy="50" rx="40" ry="16" transform="rotate(90 50 50)" />
  </g>

  <!-- 5. Electrons -->
  <g fill="#818cf8" filter="url(#neon-glow)">
    <circle cx="81.5" cy="32" r="2.2" />
    <circle cx="18.5" cy="68" r="2.2" />
    <circle cx="18.5" cy="32" r="2.2" />
    <circle cx="81.5" cy="68" r="2.2" />
    <circle cx="50" cy="10" r="2.2" />
    <circle cx="50" cy="90" r="2.2" />
  </g>

  <!-- 6. Central Stylized Futuristic Holographic letter "N" -->
  <g filter="url(#neon-glow)">
    <!-- Outer Shadow/Glow under N -->
    <path 
      d="M35 25 L35 75 L44 75 L44 42 L62 75 L71 75 L71 25 L62 25 L62 58 L44 25 Z" 
      fill="#31106e" 
      opacity="0.5" 
      transform="translate(0, 1.5)"
    />
    
    <!-- Main "N" body -->
    <path 
      d="M35 25 L35 75 L44 75 L44 42 L62 75 L71 75 L71 25 L62 25 L62 58 L44 25 Z" 
      fill="url(#neon-n-grad)" 
    />

    <!-- Gloss Overlay & Bevel Highlights -->
    <path 
      d="M35 25 L35 75 L39 75 L39 31 L57 69 L62 69 L62 25 L66 25 L66 75 L71 75 L71 25 Z" 
      fill="url(#n-bezel-grad)"
      opacity="0.35"
    />

    <!-- Left main stem highlight -->
    <line x1="37" y1="26" x2="37" y2="74" stroke="#ffffff" stroke-width="0.8" opacity="0.3" />
    <!-- Diagonal track highlight -->
    <line x1="46" y1="31" x2="60" y2="69" stroke="#ffffff" stroke-width="0.8" opacity="0.4" />
  </g>
</svg>
